<svg width="20" height="20" viewBox="0 0 20 20" fill="none" xmlns="http://www.w3.org/2000/svg">
<path fill-rule="evenodd" clip-rule="evenodd" d="M18.974 10.2125C18.974 9.5496 18.9145 8.91225 18.804 8.30038H10V11.9163H15.0309C14.8142 13.0848 14.1556 14.0748 13.1655 14.7377V17.0832H16.1866C17.9542 15.4558 18.974 13.0593 18.974 10.2125Z" fill="#4285F4"/>
<path fill-rule="evenodd" clip-rule="evenodd" d="M9.99996 19.3478C12.5239 19.3478 14.6399 18.5107 16.1866 17.083L13.1655 14.7376C12.3284 15.2984 11.2577 15.6299 9.99996 15.6299C7.56525 15.6299 5.50447 13.9855 4.76938 11.776H1.64633V14.1979C3.18449 17.253 6.34578 19.3478 9.99996 19.3478Z" fill="#34A853"/>
<path fill-rule="evenodd" clip-rule="evenodd" d="M4.76942 11.7761C4.58247 11.2153 4.47624 10.6162 4.47624 10C4.47624 9.38393 4.58247 8.78482 4.76942 8.22394V5.80199H1.64638C1.01327 7.06395 0.6521 8.49163 0.6521 10C0.6521 11.5085 1.01327 12.9361 1.64638 14.1981L4.76942 11.7761Z" fill="#FBBC05"/>
<path fill-rule="evenodd" clip-rule="evenodd" d="M9.99996 4.37001C11.3724 4.37001 12.6046 4.84166 13.5734 5.76795L16.2546 3.0868C14.6357 1.57839 12.5196 0.6521 9.99996 0.6521C6.34578 0.6521 3.18449 2.74688 1.64633 5.80194L4.76938 8.2239C5.50447 6.01439 7.56525 4.37001 9.99996 4.37001Z" fill="#EA4335"/>
</svg>
