<svg xmlns="http://www.w3.org/2000/svg" width="21" height="20" viewBox="0 0 21 20" fill="none">
  <path fill-rule="evenodd" clip-rule="evenodd" d="M20.1 10.2272C20.1 9.51813 20.0364 8.83631 19.9182 8.18176H10.5V12.0499H15.8818C15.65 13.2999 14.9455 14.359 13.8864 15.0681V17.5772H17.1182C19.0091 15.8363 20.1 13.2727 20.1 10.2272Z" fill="#4285F4"/>
  <path fill-rule="evenodd" clip-rule="evenodd" d="M10.4998 19.9999C13.1998 19.9999 15.4635 19.1044 17.118 17.5772L13.8862 15.0681C12.9907 15.6681 11.8453 16.0226 10.4998 16.0226C7.89529 16.0226 5.69075 14.2635 4.90439 11.8999H1.56348V14.4908C3.20893 17.759 6.59075 19.9999 10.4998 19.9999Z" fill="#34A853"/>
  <path fill-rule="evenodd" clip-rule="evenodd" d="M4.90455 11.9001C4.70455 11.3001 4.59091 10.6592 4.59091 10.0001C4.59091 9.34097 4.70455 8.70006 4.90455 8.10006V5.50916H1.56364C0.886364 6.85916 0.5 8.38643 0.5 10.0001C0.5 11.6137 0.886364 13.141 1.56364 14.491L4.90455 11.9001Z" fill="#FBBC05"/>
  <path fill-rule="evenodd" clip-rule="evenodd" d="M10.5 3.97727C11.9681 3.97727 13.2863 4.48182 14.3227 5.47273L17.1909 2.60455C15.4591 0.990909 13.1954 0 10.5 0C6.59087 0 3.20905 2.24091 1.5636 5.50909L4.90451 8.1C5.69087 5.73636 7.89542 3.97727 10.5 3.97727Z" fill="#EA4335"/>
</svg>