<svg width="30" height="30" viewBox="0 0 30 30" fill="none" xmlns="http://www.w3.org/2000/svg">
<rect width="30" height="30" rx="15" fill="#18AFBD"/>
<path d="M12.5034 15.0379C12.5034 13.656 13.623 12.5355 15.0045 12.5355C16.386 12.5355 17.5062 13.656 17.5062 15.0379C17.5062 16.4198 16.386 17.5403 15.0045 17.5403C13.623 17.5403 12.5034 16.4198 12.5034 15.0379ZM11.151 15.0379C11.151 17.1668 12.8762 18.8925 15.0045 18.8925C17.1328 18.8925 18.858 17.1668 18.858 15.0379C18.858 12.909 17.1328 11.1833 15.0045 11.1833C12.8762 11.1833 11.151 12.909 11.151 15.0379ZM18.11 11.0305C18.1099 11.2087 18.1627 11.3828 18.2616 11.531C18.3604 11.6792 18.501 11.7947 18.6656 11.863C18.8301 11.9312 19.0112 11.9491 19.1859 11.9144C19.3606 11.8797 19.5211 11.794 19.647 11.6681C19.773 11.5421 19.8589 11.3817 19.8937 11.2069C19.9285 11.0322 19.9107 10.8511 19.8426 10.6865C19.7746 10.5218 19.6592 10.3811 19.5111 10.2821C19.3631 10.183 19.189 10.1301 19.0109 10.1301H19.0105C18.7718 10.1302 18.5428 10.2251 18.374 10.3939C18.2051 10.5627 18.1102 10.7917 18.11 11.0305V11.0305ZM11.9727 21.1482C11.241 21.1148 10.8433 20.9929 10.5791 20.8899C10.2287 20.7535 9.97871 20.591 9.71587 20.3284C9.45303 20.0659 9.29033 19.8161 9.15453 19.4656C9.05151 19.2014 8.92964 18.8034 8.89638 18.0716C8.86 17.2803 8.85273 17.0426 8.85273 15.038C8.85273 13.0333 8.8606 12.7963 8.89638 12.0044C8.9297 11.2725 9.05247 10.8754 9.15453 10.6104C9.29093 10.2599 9.45339 10.0098 9.71587 9.74692C9.97835 9.484 10.2281 9.32126 10.5791 9.18542C10.8432 9.08237 11.241 8.96046 11.9727 8.92719C12.7637 8.8908 13.0013 8.88353 15.0045 8.88353C17.0077 8.88353 17.2455 8.8914 18.0372 8.92719C18.7689 8.96052 19.1659 9.08333 19.4308 9.18542C19.7812 9.32126 20.0312 9.48436 20.294 9.74692C20.5569 10.0095 20.719 10.2599 20.8554 10.6104C20.9584 10.8746 21.0803 11.2725 21.1135 12.0044C21.1499 12.7963 21.1572 13.0333 21.1572 15.038C21.1572 17.0426 21.1499 17.2796 21.1135 18.0716C21.0802 18.8034 20.9577 19.2012 20.8554 19.4656C20.719 19.8161 20.5565 20.0661 20.294 20.3284C20.0316 20.5907 19.7812 20.7535 19.4308 20.8899C19.1667 20.993 18.7689 21.1149 18.0372 21.1482C17.2462 21.1846 17.0086 21.1918 15.0045 21.1918C13.0004 21.1918 12.7635 21.1846 11.9727 21.1482V21.1482ZM11.9105 7.57671C11.1116 7.6131 10.5657 7.73982 10.089 7.92538C9.59526 8.11701 9.17729 8.3741 8.75962 8.79123C8.34194 9.20836 8.08559 9.62711 7.89402 10.121C7.70851 10.5982 7.58183 11.1439 7.54545 11.9431C7.50847 12.7435 7.5 12.9993 7.5 15.0379C7.5 17.0765 7.50847 17.3324 7.54545 18.1328C7.58183 18.932 7.70851 19.4777 7.89402 19.9548C8.08559 20.4484 8.342 20.8677 8.75962 21.2846C9.17723 21.7016 9.59526 21.9583 10.089 22.1505C10.5666 22.336 11.1116 22.4627 11.9105 22.4991C12.7111 22.5355 12.9665 22.5446 15.0045 22.5446C17.0425 22.5446 17.2983 22.5361 18.0985 22.4991C18.8974 22.4627 19.443 22.336 19.92 22.1505C20.4134 21.9583 20.8317 21.7017 21.2494 21.2846C21.6671 20.8675 21.9229 20.4484 22.115 19.9548C22.3005 19.4777 22.4278 18.9319 22.4636 18.1328C22.4999 17.3318 22.5084 17.0765 22.5084 15.0379C22.5084 12.9993 22.4999 12.7435 22.4636 11.9431C22.4272 11.1439 22.3005 10.5979 22.115 10.121C21.9229 9.62741 21.6664 9.20902 21.2494 8.79123C20.8324 8.37344 20.4134 8.11701 19.9206 7.92538C19.443 7.73982 18.8974 7.6125 18.0991 7.57671C17.2989 7.54032 17.0431 7.53125 15.0051 7.53125C12.9671 7.53125 12.7111 7.53972 11.9105 7.57671Z" fill="white"/>
</svg>
