<svg width="30" height="30" viewBox="0 0 30 30" fill="none" xmlns="http://www.w3.org/2000/svg">
<rect width="30" height="30" rx="15" fill="#2A788A"/>
<path d="M8.34605 14.469C8.34605 14.469 14.4495 11.8984 16.5662 10.9932C17.3777 10.6312 20.1295 9.47251 20.1295 9.47251C20.1295 9.47251 21.3996 8.96565 21.2937 10.1967C21.2584 10.7036 20.9762 12.4777 20.694 14.3966C20.2706 17.1122 19.812 20.0811 19.812 20.0811C19.812 20.0811 19.7414 20.9139 19.1417 21.0587C18.5419 21.2035 17.5541 20.5518 17.3777 20.407C17.2365 20.2984 14.7317 18.669 13.8144 17.8725C13.5674 17.6553 13.2852 17.2208 13.8497 16.7139C15.1198 15.5191 16.6368 14.0346 17.5541 13.0932C17.9774 12.6587 18.4008 11.6449 16.6368 12.8759C14.1319 14.6501 11.6624 16.3156 11.6624 16.3156C11.6624 16.3156 11.0979 16.6777 10.0395 16.3518C8.98105 16.026 7.74626 15.5915 7.74626 15.5915C7.74626 15.5915 6.89959 15.0484 8.34605 14.469Z" fill="white"/>
</svg>
