<svg width="30" height="30" viewBox="0 0 30 30" fill="none" xmlns="http://www.w3.org/2000/svg">
<rect width="30" height="30" rx="15" fill="#2A788A"/>
<path d="M7.5 21.945L8.57622 17.9433C7.70827 16.3845 7.43252 14.5655 7.79956 12.82C8.16659 11.0746 9.1518 9.51987 10.5744 8.4411C11.997 7.36232 13.7615 6.83189 15.5442 6.94714C17.3269 7.06238 19.0082 7.81557 20.2796 9.0685C21.5509 10.3214 22.327 11.99 22.4655 13.7681C22.604 15.5463 22.0956 17.3146 21.0335 18.7487C19.9715 20.1827 18.427 21.1863 16.6836 21.5753C14.9402 21.9643 13.1147 21.7126 11.5422 20.8663L7.5 21.945ZM11.7371 19.3689L11.9871 19.5169C13.1261 20.1909 14.4564 20.4698 15.7708 20.3102C17.0852 20.1506 18.3097 19.5613 19.2536 18.6343C20.1975 17.7074 20.8078 16.4947 20.9893 15.1853C21.1708 13.8759 20.9133 12.5434 20.257 11.3953C19.6007 10.2473 18.5824 9.3482 17.3608 8.83823C16.1393 8.32827 14.7831 8.23605 13.5035 8.57594C12.224 8.91583 11.093 9.66874 10.2868 10.7173C9.48065 11.7659 9.04456 13.0513 9.04653 14.3732C9.04546 15.4692 9.34908 16.5441 9.9236 17.478L10.0804 17.7361L9.47871 19.9695L11.7371 19.3689Z" fill="white"/>
<path fill-rule="evenodd" clip-rule="evenodd" d="M17.8043 15.4002C17.6578 15.2822 17.4862 15.1991 17.3026 15.1573C17.119 15.1155 16.9283 15.1161 16.745 15.159C16.4696 15.2733 16.2917 15.7047 16.1137 15.9205C16.0762 15.9722 16.021 16.0084 15.9586 16.0225C15.8962 16.0365 15.8308 16.0273 15.7747 15.9966C14.7665 15.6023 13.9213 14.8793 13.3766 13.945C13.3301 13.8867 13.3081 13.8127 13.3152 13.7385C13.3223 13.6644 13.358 13.5958 13.4147 13.5474C13.6132 13.3512 13.7589 13.1083 13.8384 12.841C13.8561 12.5461 13.7884 12.2525 13.6435 11.995C13.5315 11.634 13.3183 11.3125 13.0291 11.0686C12.88 11.0016 12.7146 10.9792 12.553 11.0039C12.3913 11.0287 12.2403 11.0996 12.1182 11.2082C11.9061 11.3908 11.7377 11.6187 11.6255 11.8749C11.5134 12.1311 11.4602 12.4092 11.4699 12.6887C11.4705 12.8456 11.4905 13.0019 11.5292 13.154C11.6276 13.5194 11.7789 13.8686 11.9783 14.1904C12.1222 14.4369 12.2792 14.6755 12.4486 14.9052C12.9993 15.6599 13.6914 16.3006 14.4867 16.7918C14.8857 17.0415 15.3123 17.2444 15.7578 17.3967C16.2206 17.6062 16.7316 17.6866 17.2365 17.6294C17.5242 17.5859 17.7968 17.4725 18.0303 17.2992C18.2637 17.1258 18.451 16.8979 18.5754 16.6353C18.6486 16.4767 18.6708 16.2994 18.639 16.1277C18.5627 15.7766 18.0924 15.5694 17.8043 15.4002Z" fill="white"/>
</svg>
