<svg xmlns="http://www.w3.org/2000/svg" width="25" height="24" viewBox="0 0 25 24" fill="none">
  <g clip-path="url(#clip0_1424_15442)">
    <path d="M22.2449 0H1.79336C0.813672 0 0.0214844 0.773438 0.0214844 1.72969V22.2656C0.0214844 23.2219 0.813672 24 1.79336 24H22.2449C23.2246 24 24.0215 23.2219 24.0215 22.2703V1.72969C24.0215 0.773438 23.2246 0 22.2449 0ZM7.1418 20.4516H3.5793V8.99531H7.1418V20.4516ZM5.36055 7.43438C4.2168 7.43438 3.29336 6.51094 3.29336 5.37187C3.29336 4.23281 4.2168 3.30937 5.36055 3.30937C6.49961 3.30937 7.42305 4.23281 7.42305 5.37187C7.42305 6.50625 6.49961 7.43438 5.36055 7.43438ZM20.473 20.4516H16.9152V14.8828C16.9152 13.5562 16.8918 11.8453 15.0637 11.8453C13.2121 11.8453 12.9309 13.2937 12.9309 14.7891V20.4516H9.37774V8.99531H12.7902V10.5609H12.8371C13.3105 9.66094 14.473 8.70938 16.2027 8.70938C19.8074 8.70938 20.473 11.0813 20.473 14.1656V20.4516Z" fill="#28262E"/>
  </g>
  <defs>
    <clipPath id="clip0_1424_15442">
      <rect width="24" height="24" fill="white" transform="translate(0.0214844)"/>
    </clipPath>
  </defs>
</svg>