<svg xmlns="http://www.w3.org/2000/svg" width="18" height="18" viewBox="0 0 18 18" fill="none">
  <path d="M16.5626 8.54684C15.9447 7.245 15.2094 6.18328 14.3566 5.36168L13.4622 6.25606C14.1915 6.95303 14.8268 7.86481 15.3761 9.00035C13.9136 12.0273 11.8376 13.4652 9.00053 13.4652C8.14893 13.4652 7.36453 13.3341 6.64735 13.0718L5.67826 14.0409C6.67436 14.5008 7.78178 14.7308 9.00053 14.7308C12.379 14.7308 14.8997 12.9713 16.5626 9.45211C16.6295 9.31058 16.6642 9.156 16.6642 8.99948C16.6642 8.84295 16.6295 8.68837 16.5626 8.54684ZM15.4452 2.91059L14.6958 2.16035C14.6828 2.14728 14.6673 2.13691 14.6502 2.12983C14.6331 2.12275 14.6148 2.11911 14.5964 2.11911C14.5779 2.11911 14.5596 2.12275 14.5425 2.12983C14.5254 2.13691 14.5099 2.14728 14.4969 2.16035L12.5743 4.08199C11.5144 3.54059 10.3231 3.26988 9.00053 3.26988C5.62201 3.26988 3.10131 5.02946 1.43842 8.5486C1.37158 8.69013 1.33691 8.84471 1.33691 9.00123C1.33691 9.15775 1.37158 9.31234 1.43842 9.45387C2.10276 10.8531 2.90256 11.9746 3.83783 12.8185L1.97772 14.6781C1.95136 14.7045 1.93656 14.7402 1.93656 14.7775C1.93656 14.8148 1.95136 14.8505 1.97772 14.8769L2.72813 15.6273C2.7545 15.6537 2.79025 15.6685 2.82753 15.6685C2.86481 15.6685 2.90057 15.6537 2.92693 15.6273L15.4452 3.10957C15.4583 3.09651 15.4686 3.081 15.4757 3.06393C15.4828 3.04686 15.4864 3.02856 15.4864 3.01008C15.4864 2.9916 15.4828 2.9733 15.4757 2.95623C15.4686 2.93916 15.4583 2.92365 15.4452 2.91059ZM2.62494 9.00035C4.0892 5.9734 6.16518 4.53551 9.00053 4.53551C9.95924 4.53551 10.8309 4.70004 11.6218 5.03455L10.386 6.2703C9.80081 5.95804 9.13071 5.84216 8.4746 5.93973C7.81849 6.03731 7.21112 6.34317 6.74208 6.81221C6.27304 7.28125 5.96717 7.88863 5.86959 8.54474C5.77202 9.20085 5.88791 9.87094 6.20016 10.4562L4.73379 11.9225C3.92221 11.2062 3.2226 10.2357 2.62494 9.00035ZM6.96147 9.00035C6.96177 8.69039 7.03519 8.38487 7.17576 8.10861C7.31633 7.83235 7.52008 7.59315 7.77047 7.41043C8.02085 7.22771 8.3108 7.10663 8.61677 7.05703C8.92274 7.00742 9.2361 7.03069 9.53139 7.12494L7.05481 9.60153C6.99273 9.40718 6.96124 9.20437 6.96147 9.00035Z" fill="black" fill-opacity="0.25"/>
  <path d="M8.93038 10.969C8.86955 10.969 8.80961 10.9661 8.7502 10.9607L7.82173 11.8892C8.38016 12.103 8.9886 12.1506 9.57347 12.026C10.1583 11.9014 10.6946 11.6101 11.1175 11.1873C11.5403 10.7644 11.8316 10.2282 11.9562 9.6433C12.0807 9.05843 12.0332 8.44999 11.8193 7.89156L10.8909 8.82003C10.8963 8.87944 10.8991 8.93938 10.8991 9.00021C10.8993 9.25878 10.8484 9.51485 10.7495 9.75378C10.6507 9.9927 10.5056 10.2098 10.3228 10.3926C10.14 10.5755 9.92287 10.7205 9.68395 10.8194C9.44502 10.9183 9.18895 10.9691 8.93038 10.969Z" fill="black" fill-opacity="0.25"/>
</svg>