<svg width="18" height="18" viewBox="0 0 18 18" fill="none" xmlns="http://www.w3.org/2000/svg">
<path d="M16.5626 8.54648C14.8962 5.03613 12.3773 3.26953 9.00053 3.26953C5.62201 3.26953 3.10483 5.03613 1.43842 8.54824C1.37158 8.68978 1.33691 8.84436 1.33691 9.00088C1.33691 9.1574 1.37158 9.31198 1.43842 9.45352C3.10483 12.9639 5.62377 14.7305 9.00053 14.7305C12.379 14.7305 14.8962 12.9639 16.5626 9.45176C16.698 9.16699 16.698 8.83652 16.5626 8.54648ZM9.00053 13.4648C6.16518 13.4648 4.0892 12.027 2.62494 9C4.0892 5.97305 6.16518 4.53516 9.00053 4.53516C11.8359 4.53516 13.9119 5.97305 15.3761 9C13.9136 12.027 11.8376 13.4648 9.00053 13.4648ZM8.93022 5.90625C7.22162 5.90625 5.83647 7.29141 5.83647 9C5.83647 10.7086 7.22162 12.0938 8.93022 12.0938C10.6388 12.0938 12.024 10.7086 12.024 9C12.024 7.29141 10.6388 5.90625 8.93022 5.90625ZM8.93022 10.9688C7.84213 10.9688 6.96147 10.0881 6.96147 9C6.96147 7.91191 7.84213 7.03125 8.93022 7.03125C10.0183 7.03125 10.899 7.91191 10.899 9C10.899 10.0881 10.0183 10.9688 8.93022 10.9688Z" fill="black" fill-opacity="0.25"/>
</svg>
